<svg width="36" height="36" viewBox="0 0 36 36" fill="none" xmlns="http://www.w3.org/2000/svg">
<rect x="0.5" y="0.5" width="35" height="35" rx="17.5" stroke="#6B6B69"/>
<path d="M28.0001 18.0003C28.0001 18.5523 27.5531 19.0003 27.0001 19.0003H11.4141L16.7071 24.2933C17.0981 24.6842 17.0981 25.3163 16.7071 25.7073C16.5121 25.9023 16.2561 26.0003 16.0001 26.0003C15.7441 26.0003 15.488 25.9023 15.293 25.7073L8.29401 18.7083C8.20101 18.6153 8.12797 18.5054 8.07697 18.3824C7.97597 18.1384 7.97597 17.8622 8.07697 17.6182C8.12797 17.4952 8.20101 17.3853 8.29401 17.2923L15.293 10.2932C15.684 9.90225 16.3161 9.90225 16.7071 10.2932C17.0981 10.6842 17.0981 11.3163 16.7071 11.7073L11.4141 17.0003H27.0001C27.5531 17.0003 28.0001 17.4483 28.0001 18.0003Z" fill="#FAF7ED"/>
</svg>
