<svg width="24" height="24" viewBox="0 0 24 24" fill="none" xmlns="http://www.w3.org/2000/svg">
<path fill-rule="evenodd" clip-rule="evenodd" d="M3 8C3 5.23858 5.23858 3 8 3H12C14.4485 3 16.4859 4.75992 16.9162 7.08376C19.2401 7.51413 21 9.55154 21 12V16C21 18.7614 18.7614 21 16 21H12C9.55154 21 7.51413 19.2401 7.08376 16.9162C4.75992 16.4859 3 14.4485 3 12V8ZM7 14.8293V12C7 9.23858 9.23858 7 12 7H14.8293C14.4175 5.83481 13.3062 5 12 5H8C6.34315 5 5 6.34315 5 8V12C5 13.3062 5.83481 14.4175 7 14.8293ZM9 12C9 10.3431 10.3431 9 12 9H16C17.6569 9 19 10.3431 19 12V16C19 17.6569 17.6569 19 16 19H12C10.3431 19 9 17.6569 9 16V12Z" fill="#05AAD7"/>
</svg>
