<svg width="28" height="28" viewBox="0 0 28 28" fill="none" xmlns="http://www.w3.org/2000/svg">
<rect width="28" height="28" rx="14" fill="#302E2C"/>
<g clip-path="url(#clip0_11002_1364)">
<path d="M18.8516 9.42413C17.9593 9.01469 17.0024 8.71304 16.0019 8.54028C15.9837 8.53694 15.9655 8.54527 15.9561 8.56194C15.8331 8.78082 15.6968 9.06636 15.6013 9.29079C14.5252 9.12969 13.4547 9.12969 12.4007 9.29079C12.3052 9.06137 12.1639 8.78082 12.0403 8.56194C12.0309 8.54583 12.0127 8.5375 11.9945 8.54028C10.9946 8.71249 10.0377 9.01414 9.14488 9.42413C9.13715 9.42746 9.13052 9.43302 9.12613 9.44024C7.31115 12.1518 6.81395 14.7967 7.05786 17.4088C7.05896 17.4216 7.06613 17.4338 7.07607 17.4416C8.27354 18.3209 9.4335 18.8548 10.5719 19.2087C10.5901 19.2142 10.6094 19.2076 10.621 19.1926C10.8903 18.8248 11.1304 18.4371 11.3362 18.0293C11.3483 18.0054 11.3367 17.9771 11.3119 17.9676C10.9312 17.8232 10.5686 17.6471 10.2198 17.4471C10.1923 17.431 10.19 17.3915 10.2154 17.3727C10.2888 17.3177 10.3622 17.2604 10.4323 17.2027C10.445 17.1921 10.4627 17.1899 10.4776 17.1966C12.7687 18.2426 15.2492 18.2426 17.5134 17.1966C17.5283 17.1893 17.546 17.1916 17.5592 17.2021C17.6293 17.2599 17.7027 17.3177 17.7766 17.3727C17.802 17.3915 17.8003 17.431 17.7728 17.4471C17.424 17.651 17.0614 17.8232 16.6801 17.9671C16.6553 17.9765 16.6443 18.0054 16.6564 18.0293C16.8666 18.4365 17.1067 18.8243 17.371 19.192C17.3821 19.2076 17.4019 19.2142 17.4201 19.2087C18.5641 18.8548 19.724 18.3209 20.9215 17.4416C20.932 17.4338 20.9386 17.4221 20.9397 17.4093C21.2316 14.3895 20.4508 11.7662 18.8698 9.44079C18.8659 9.43302 18.8593 9.42746 18.8516 9.42413ZM11.6783 15.8183C10.9885 15.8183 10.4202 15.185 10.4202 14.4072C10.4202 13.6295 10.9775 12.9962 11.6783 12.9962C12.3847 12.9962 12.9476 13.635 12.9365 14.4072C12.9365 15.185 12.3792 15.8183 11.6783 15.8183ZM16.3303 15.8183C15.6405 15.8183 15.0721 15.185 15.0721 14.4072C15.0721 13.6295 15.6294 12.9962 16.3303 12.9962C17.0366 12.9962 17.5995 13.635 17.5885 14.4072C17.5885 15.185 17.0366 15.8183 16.3303 15.8183Z" fill="white"/>
</g>
<defs>
<clipPath id="clip0_11002_1364">
<rect width="14" height="14" fill="white" transform="translate(7 7)"/>
</clipPath>
</defs>
</svg>
