<svg width="16" height="16" viewBox="0 0 16 16" fill="none" xmlns="http://www.w3.org/2000/svg">
<path d="M12.8048 1.86216C11.9922 1.04953 10.6747 1.04953 9.86202 1.86216L3.78983 7.93435C3.53352 8.19067 3.35168 8.51183 3.26376 8.86349L2.68667 11.1719C2.62987 11.3991 2.69644 11.6394 2.86202 11.805C3.02761 11.9706 3.26794 12.0371 3.49512 11.9803L5.8035 11.4032C6.15517 11.3153 6.47633 11.1335 6.73264 10.8772L12.8048 4.80497C13.6175 3.99234 13.6175 2.6748 12.8048 1.86216Z" fill="#05AAD7"/>
<path d="M2.66675 14.0001C2.66675 13.6319 2.96522 13.3334 3.33341 13.3334H12.6667C13.0349 13.3334 13.3334 13.6319 13.3334 14.0001C13.3334 14.3683 13.0349 14.6667 12.6667 14.6667H3.33341C2.96522 14.6667 2.66675 14.3683 2.66675 14.0001Z" fill="#05AAD7"/>
</svg>
