<svg width="16" height="16" viewBox="0 0 17 16" fill="none" xmlns="http://www.w3.org/2000/svg">
<path opacity="0.4" d="M4.88676 8.49967C4.98676 10.553 5.68009 12.6463 6.88676 14.5063C4.06009 13.8797 1.90677 11.4597 1.68677 8.49967H4.88676ZM6.88676 1.493C4.06009 2.11967 1.90677 4.53967 1.68677 7.49967H4.88676C4.98676 5.44634 5.68009 3.353 6.88676 1.493ZM8.46678 1.33301H8.20009L8.0001 1.61967C6.73344 3.41967 5.99343 5.48634 5.88676 7.49967H10.7801C10.6734 5.48634 9.93344 3.41967 8.66677 1.61967L8.46678 1.33301ZM5.88676 8.49967C5.99343 10.513 6.73344 12.5797 8.0001 14.3797L8.20009 14.6663H8.46678L8.66677 14.3797C9.93344 12.5797 10.6734 10.513 10.7801 8.49967H5.88676ZM11.7801 8.49967C11.6801 10.553 10.9868 12.6463 9.78011 14.5063C12.6068 13.8797 14.7601 11.4597 14.9801 8.49967H11.7801ZM14.9801 7.49967C14.7601 4.53967 12.6068 2.11967 9.78011 1.493C10.9868 3.353 11.6801 5.44634 11.7801 7.49967H14.9801Z" fill="white"/>
</svg>
