<svg width="20" height="20" viewBox="0 0 20 20" fill="none" xmlns="http://www.w3.org/2000/svg">
<path d="M8.57753 8.08955C8.81586 8.32789 9.17429 8.39918 9.48569 8.2702C9.79708 8.14122 10.0001 7.83736 10.0001 7.50031L10.0001 5.83363C12.9917 5.83366 15.4167 8.25878 15.4167 11.2503C15.4167 14.2418 12.9916 16.667 10.0001 16.667C7.00854 16.667 4.58341 14.2418 4.58341 11.2503V10.8336C4.58341 10.3734 4.21032 10.0003 3.75008 10.0003C3.28984 10.0003 2.91675 10.3734 2.91675 10.8336V11.2503C2.91675 15.1623 6.08806 18.3336 10.0001 18.3336C13.9121 18.3336 17.0834 15.1623 17.0834 11.2503C17.0834 7.33831 13.9121 4.16701 10.0002 4.16697L10.0002 2.50036C10.0002 2.16331 9.79715 1.85944 9.48575 1.73046C9.17436 1.60147 8.81593 1.67276 8.5776 1.91108L6.08249 4.40609C5.92875 4.55727 5.83341 4.76765 5.83341 5.0003C5.83341 5.23297 5.92877 5.44337 6.08253 5.59455L8.57753 8.08955Z" fill="#FAF7ED"/>
</svg>
