<svg width="28" height="28" viewBox="0 0 28 28" fill="none" xmlns="http://www.w3.org/2000/svg">
<rect width="28" height="28" rx="14" fill="#302E2C"/>
<g clip-path="url(#clip0_8623_1617)">
<path d="M20.9937 8.47674C21.0208 8.31355 20.9596 8.14816 20.8327 8.04203C20.7058 7.93591 20.5322 7.9049 20.3763 7.96055L7.30971 12.6272C7.13366 12.6901 7.01212 12.852 7.00085 13.0386C6.98958 13.2252 7.09076 13.4005 7.25797 13.4841L10.9913 15.3508C11.1411 15.4256 11.3195 15.4145 11.4589 15.3216L15.4 12.6L12.7023 15.5752C12.6206 15.6773 12.5855 15.809 12.6055 15.9383C12.6256 16.0675 12.699 16.1824 12.8078 16.255L18.4079 19.9883C18.5395 20.0761 18.7069 20.0911 18.8522 20.0282C18.9975 19.9653 19.1009 19.833 19.127 19.6767L20.9937 8.47674Z" fill="#FAF7ED"/>
</g>
<defs>
<clipPath id="clip0_8623_1617">
<rect width="14" height="14" fill="white" transform="translate(7 7)"/>
</clipPath>
</defs>
</svg>
