<svg width="32" height="32" viewBox="0 0 32 32" fill="none" xmlns="http://www.w3.org/2000/svg">
<path opacity="0.4" d="M8 13.3335C5.33333 13.3335 4 14.6668 4 17.3335V24.0002C4 26.6668 5.33333 28.0002 8 28.0002H24C26.6667 28.0002 28 26.6668 28 24.0002V17.3335C28 14.6668 26.6667 13.3335 24 13.3335H8Z" fill="#FAF7ED"/>
<path d="M20.7067 7.29345L16.7067 3.29345C16.6147 3.20145 16.5039 3.12813 16.3812 3.07746C16.1372 2.97613 15.8612 2.97613 15.6172 3.07746C15.4946 3.12813 15.384 3.20145 15.292 3.29345L11.292 7.29345C10.9014 7.68411 10.9014 8.31749 11.292 8.70816C11.6827 9.09883 12.3161 9.09883 12.7067 8.70816L15 6.41479V21.3335C15 21.8855 15.448 22.3335 16 22.3335C16.552 22.3335 17 21.8855 17 21.3335V6.41479L19.2933 8.70816C19.488 8.90283 19.744 9.00146 20 9.00146C20.256 9.00146 20.5121 8.90416 20.7067 8.70816C21.0974 8.31749 21.0974 7.68278 20.7067 7.29345Z" fill="#FAF7ED"/>
</svg>
